<?xml version="1.0" encoding="UTF-8" standalone="no"?>
<svg xmlns:inkscape="http://www.inkscape.org/namespaces/inkscape" xmlns:sodipodi="http://sodipodi.sourceforge.net/DTD/sodipodi-0.dtd" xmlns:xlink="http://www.w3.org/1999/xlink" xmlns="http://www.w3.org/2000/svg" xmlns:svg="http://www.w3.org/2000/svg" viewBox="0 0 900 540" version="1.1" id="svg15" sodipodi:docname="git historia.svg" width="900" height="540" inkscape:version="1.2.2 (b0a8486541, 2022-12-01)" inkscape:export-filename="git historia.png" inkscape:export-xdpi="96" inkscape:export-ydpi="96">
  <defs id="defs7">
    <linearGradient inkscape:collect="always" id="linearGradient115608">
      <stop style="stop-color:#ffccaa;stop-opacity:0.1503038;" offset="0" id="stop115604"></stop>
      <stop style="stop-color:#ffccaa;stop-opacity:0.90205544;" offset="1" id="stop115606"></stop>
    </linearGradient>
    <linearGradient id="grad0" x1="-74.929001" y1="52.200001" x2="-75.260002" y2="2.3559999" gradientUnits="userSpaceOnUse" gradientTransform="matrix(21.965838,0,0,9.1763341,2050.375,611.23041)">
      <stop offset="0" stop-color="#197cf1" id="stop2" style="stop-color:#e5f4f4;stop-opacity:1;"></stop>
      <stop offset="1" stop-color="#20bcfa" id="stop4" style="stop-color:#c1d3fa;stop-opacity:1;"></stop>
    </linearGradient>
    <clipPath id="a">
      <path d="m 159,0.79 h 25 V 69 h -25 z m 0,0" id="path91830"></path>
    </clipPath>
    <clipPath id="b">
      <path d="m 183,9 h 35.371 V 69 H 183 Z m 0,0" id="path91833"></path>
    </clipPath>
    <clipPath id="c">
      <path d="M 0,0.79 H 92 V 92 H 0 Z m 0,0" id="path91836"></path>
    </clipPath>
    <radialGradient inkscape:collect="always" xlink:href="#linearGradient115608" id="radialGradient115610" cx="394.8211" cy="270.25554" fx="394.8211" fy="270.25554" r="450.98035" gradientTransform="matrix(0.99748117,0,0,0.59827804,-0.14145586,108.40598)" gradientUnits="userSpaceOnUse"></radialGradient>
  </defs>
  <g transform="translate(56.39,0.089)" id="g13">
    <rect style="fill:url(#radialGradient115610);fill-opacity:1;stroke-width:1.83663" id="rect114999" width="899.68878" height="539.62323" x="-56.159245" y="0.28228682"></rect>
    <path style="fill:#241c1c;fill-opacity:1;fill-rule:nonzero;stroke:none;stroke-width:2.56145" d="m 432.85684,236.97543 c -12.25657,0 -21.39072,6.02455 -21.39072,20.51215 0,10.91438 6.01174,18.49885 20.72986,18.49885 12.47687,0 20.95273,-7.3437 20.95273,-18.94966 0,-13.14796 -7.58448,-20.06134 -20.29187,-20.06134 z m -24.51315,102.33022 c -2.90211,3.56042 -5.79401,7.35139 -5.79401,11.81344 0,8.91387 11.3575,11.58803 26.96446,11.58803 12.93792,0 30.54795,-0.90163 30.54795,-12.91743 0,-7.15415 -8.47331,-7.59471 -19.18019,-8.26581 z m 65.9857,-101.65912 c 4.00356,5.13316 8.24789,12.26683 8.24789,22.52291 0,24.73342 -19.39278,39.23127 -47.47916,39.23127 -7.14391,0 -13.60647,-0.89139 -17.62026,-2.01075 l -7.35139,11.81601 21.83898,1.33195 c 38.57299,2.459 61.30592,3.58092 61.30592,33.21698 0,25.63507 -22.51264,40.12522 -61.30592,40.12522 -40.34295,0 -55.72962,-10.25606 -55.72962,-27.86864 0,-10.03324 4.46207,-15.36875 12.26682,-22.74061 -7.36419,-3.10193 -9.80526,-8.67566 -9.80526,-14.70021 0,-4.90263 2.44107,-9.36469 6.46255,-13.60646 4.01125,-4.23154 8.46563,-8.46563 13.81908,-13.36825 -10.91694,-5.35344 -19.17251,-16.94915 -19.17251,-33.44752 0,-25.63506 16.93891,-43.23738 51.04984,-43.23738 9.58496,0 15.37898,0.88113 20.51214,2.23357 h 43.47304 v 18.93943 l -20.50956,1.56248" id="path91841"></path>
    <g clip-path="url(#a)" id="g91845" transform="matrix(2.5614571,0,0,2.5614571,97.636385,155.42888)" style="fill:#241c1c">
      <path style="fill:#241c1c;fill-opacity:1;fill-rule:nonzero;stroke:none" d="m 170.379,16.281 c -4.961,0 -7.832,-2.87 -7.832,-7.836 0,-4.957 2.871,-7.656 7.832,-7.656 5.05,0 7.922,2.7 7.922,7.656 0,4.965 -2.871,7.836 -7.922,7.836 z M 159.152,68.586 V 61.71 l 4.438,-0.606 c 1.219,-0.175 1.394,-0.437 1.394,-1.746 V 33.773 c 0,-0.953 -0.261,-1.566 -1.132,-1.824 l -4.7,-1.656 0.957,-7.047 h 18.016 V 59.36 c 0,1.399 0.086,1.57 1.395,1.746 l 4.437,0.606 v 6.875 h -24.805" id="path91843"></path>
    </g>
    <g clip-path="url(#b)" id="g91849" transform="matrix(2.5614571,0,0,2.5614571,97.636385,155.42888)" style="fill:#241c1c">
      <path style="fill:#241c1c;fill-opacity:1;fill-rule:nonzero;stroke:none" d="m 218.371,65.21 c -3.742,1.825 -9.223,3.481 -14.187,3.481 -10.356,0 -14.27,-4.175 -14.27,-14.015 V 31.879 c 0,-0.524 0,-0.871 -0.7,-0.871 h -6.093 v -7.746 c 7.664,-0.871 10.707,-4.703 11.664,-14.188 h 8.27 v 12.36 c 0,0.609 0,0.87 0.695,0.87 h 12.27 v 8.704 h -12.965 v 20.797 c 0,5.136 1.218,7.136 5.918,7.136 2.437,0 4.96,-0.609 7.047,-1.39 l 2.351,7.66" id="path91847"></path>
    </g>
    <g clip-path="url(#c)" id="g91853" transform="matrix(2.5614571,0,0,2.5614571,97.636385,155.42888)" style="fill:#241c1c">
      <path style="fill:#241c1c;fill-opacity:1;fill-rule:nonzero;stroke:none" d="M 89.422,42.371 49.629,2.582 a 5.868,5.868 0 0 0 -8.3,0 l -8.263,8.262 10.48,10.484 a 6.965,6.965 0 0 1 7.173,1.668 6.98,6.98 0 0 1 1.656,7.215 l 10.102,10.105 a 6.963,6.963 0 0 1 7.214,1.657 6.976,6.976 0 0 1 0,9.875 6.98,6.98 0 0 1 -9.879,0 6.987,6.987 0 0 1 -1.519,-7.594 l -9.422,-9.422 v 24.793 a 6.979,6.979 0 0 1 1.848,1.32 6.988,6.988 0 0 1 0,9.88 c -2.73,2.726 -7.153,2.726 -9.875,0 a 6.98,6.98 0 0 1 0,-9.88 6.893,6.893 0 0 1 2.285,-1.523 V 34.398 A 6.893,6.893 0 0 1 40.844,32.875 6.988,6.988 0 0 1 39.336,25.238 L 29.004,14.902 1.719,42.187 a 5.868,5.868 0 0 0 0,8.301 l 39.793,39.793 a 5.868,5.868 0 0 0 8.3,0 l 39.61,-39.605 a 5.873,5.873 0 0 0 0,-8.305" id="path91851"></path>
    </g>
  </g>
</svg>
